<?xml version="1.0" encoding="UTF-8"?>
<svg width="1302px" height="256px" viewBox="0 0 1302 256" xmlns="http://www.w3.org/2000/svg"
  xmlns:xlink="http://www.w3.org/1999/xlink" version="1.1">
  <path id="text"
    d="M1215.558 229.326 C1218.365 229.326 1220.783 228.484 1222.811 226.799 1224.839 225.115 1225.852 222.775 1225.852 219.78 L1225.852 179.444 C1232.029 189.801 1241.981 194.98 1255.707 194.98 1268.559 194.98 1278.729 190.612 1286.216 181.878 1293.703 173.143 1297.447 161.694 1297.447 147.531 1297.447 141.042 1296.557 134.881 1294.779 129.048 1293.001 123.214 1290.459 118.051 1287.152 113.559 1283.845 109.067 1279.603 105.495 1274.424 102.843 1269.246 100.192 1263.443 98.866 1257.017 98.866 1242.355 98.866 1231.967 104.325 1225.852 115.244 L1225.852 110.003 C1225.852 106.696 1224.932 104.232 1223.092 102.609 1221.251 100.987 1218.771 100.176 1215.651 100.176 1212.906 100.176 1210.489 101.065 1208.398 102.843 1206.308 104.621 1205.263 107.039 1205.263 110.096 L1205.263 219.78 C1205.263 222.775 1206.277 225.115 1208.305 226.799 1210.333 228.484 1212.75 229.326 1215.558 229.326 Z M1251.963 181.035 C1247.409 181.035 1243.4 180.084 1239.937 178.181 1236.475 176.278 1233.761 173.704 1231.795 170.46 1229.83 167.216 1228.364 163.644 1227.397 159.744 1226.43 155.845 1225.946 151.68 1225.946 147.25 1225.946 136.02 1227.943 127.457 1231.936 121.561 1235.929 115.665 1242.729 112.717 1252.338 112.717 1256.019 112.717 1259.325 113.465 1262.258 114.963 1265.19 116.46 1267.546 118.379 1269.324 120.718 1271.102 123.058 1272.584 125.788 1273.769 128.907 1274.954 132.027 1275.781 135.115 1276.249 138.172 1276.717 141.23 1276.951 144.318 1276.951 147.438 1276.951 151.618 1276.53 155.58 1275.688 159.323 1274.845 163.067 1273.504 166.623 1271.663 169.992 1269.823 173.361 1267.218 176.044 1263.849 178.04 1260.48 180.037 1256.518 181.035 1251.963 181.035 Z M1041.392 193.67 C1044.2 193.67 1046.649 192.812 1048.739 191.096 1050.829 189.38 1051.874 186.962 1051.874 183.843 L1051.874 140.699 C1051.874 132.089 1054.089 125.273 1058.519 120.25 1062.949 115.228 1068.876 112.717 1076.3 112.717 1082.29 112.717 1086.938 114.557 1090.245 118.238 1093.552 121.919 1095.205 127.472 1095.205 134.897 L1095.205 183.749 C1095.205 186.869 1096.203 189.302 1098.2 191.049 1100.196 192.796 1102.598 193.67 1105.406 193.67 1108.214 193.67 1110.631 192.796 1112.659 191.049 1114.687 189.302 1115.701 186.869 1115.701 183.749 L1115.701 142.571 C1115.701 133.212 1117.993 125.897 1122.579 120.625 1127.165 115.353 1133.076 112.717 1140.314 112.717 1146.366 112.717 1151.03 114.51 1154.305 118.098 1157.581 121.686 1159.219 127.067 1159.219 134.242 L1159.219 183.843 C1159.219 186.962 1160.217 189.38 1162.213 191.096 1164.21 192.812 1166.612 193.67 1169.419 193.67 1172.227 193.67 1174.66 192.812 1176.719 191.096 1178.778 189.38 1179.808 186.962 1179.808 183.843 L1179.808 134.616 C1179.808 122.637 1176.626 113.684 1170.262 107.757 1163.898 101.829 1155.569 98.866 1145.274 98.866 1137.537 98.866 1130.846 100.613 1125.2 104.107 1119.553 107.601 1115.326 112.841 1112.519 119.829 1110.584 113.59 1106.919 108.537 1101.522 104.668 1096.125 100.8 1089.496 98.866 1081.635 98.866 1067.784 98.866 1057.864 104.45 1051.874 115.618 L1051.874 109.16 C1051.874 106.353 1050.845 104.154 1048.786 102.563 1046.727 100.972 1044.325 100.176 1041.58 100.176 1038.772 100.176 1036.339 101.034 1034.28 102.75 1032.221 104.465 1031.191 106.821 1031.191 109.816 L1031.191 183.843 C1031.191 186.962 1032.205 189.38 1034.233 191.096 1036.261 192.812 1038.647 193.67 1041.392 193.67 Z M958.194 194.98 C970.859 194.98 979.906 189.614 985.334 178.883 L985.334 183.936 C985.334 188.179 987.174 191.111 990.855 192.734 992.29 193.358 993.788 193.67 995.348 193.67 998.093 193.67 1000.464 192.812 1002.46 191.096 1004.457 189.38 1005.455 186.962 1005.455 183.843 L1005.455 132.557 C1005.455 121.015 1002.086 112.514 995.348 107.055 988.609 101.595 979.469 98.866 967.927 98.866 955.136 98.866 943.688 101.393 933.58 106.446 931.272 107.569 930.117 109.348 930.117 111.781 930.117 113.777 930.819 115.587 932.223 117.209 933.627 118.831 935.327 119.642 937.324 119.642 937.573 119.642 937.823 119.627 938.072 119.595 938.322 119.564 938.587 119.517 938.868 119.455 939.149 119.393 939.414 119.299 939.663 119.174 943.157 117.802 945.731 116.819 947.384 116.226 949.038 115.634 951.861 114.885 955.854 113.98 959.847 113.075 963.59 112.623 967.084 112.623 978.939 112.623 984.866 118.737 984.866 130.966 L984.866 139.202 C979.126 139.202 974.259 139.249 970.266 139.342 966.273 139.436 962.187 139.654 958.006 139.997 953.826 140.341 950.348 140.808 947.571 141.401 944.795 141.994 942.065 142.774 939.383 143.741 936.7 144.708 934.563 145.893 932.972 147.297 931.381 148.701 929.946 150.401 928.667 152.398 927.388 154.394 926.483 156.671 925.953 159.229 925.422 161.788 925.157 164.72 925.157 168.027 925.157 176.637 928.246 183.281 934.422 187.961 940.599 192.64 948.523 194.98 958.194 194.98 Z M959.972 181.597 C955.355 181.597 951.642 180.427 948.835 178.087 946.027 175.748 944.623 172.082 944.623 167.091 944.623 165.281 944.764 163.675 945.045 162.271 945.325 160.867 945.809 159.604 946.495 158.481 947.181 157.358 948.008 156.406 948.975 155.626 949.942 154.846 951.253 154.16 952.906 153.567 954.559 152.975 956.322 152.507 958.194 152.164 960.065 151.82 962.421 151.54 965.259 151.321 968.098 151.103 970.999 150.963 973.963 150.9 976.927 150.838 980.53 150.807 984.772 150.807 L984.772 153.24 C984.772 161.476 982.277 168.261 977.285 173.595 972.294 178.93 966.523 181.597 959.972 181.597 Z M881.92 194.98 C894.586 194.98 904.131 192.203 910.558 186.65 912.804 184.716 913.927 182.595 913.927 180.287 913.927 179.725 913.864 179.179 913.74 178.649 913.615 178.118 913.412 177.619 913.131 177.151 912.851 176.683 912.523 176.262 912.149 175.888 911.774 175.514 911.369 175.202 910.932 174.952 910.495 174.703 910.012 174.5 909.481 174.344 908.951 174.188 908.405 174.11 907.844 174.11 907.095 174.11 906.331 174.235 905.551 174.484 904.771 174.734 904.007 175.139 903.258 175.701 898.329 179.257 891.747 181.035 883.511 181.035 875.088 181.035 868.49 177.885 863.717 171.583 858.944 165.281 856.558 157.015 856.558 146.782 856.558 136.613 859.022 128.377 863.951 122.075 868.88 115.774 875.587 112.623 884.073 112.623 890.125 112.623 895.896 114.121 901.386 117.115 902.073 117.49 902.774 117.77 903.492 117.958 904.209 118.145 904.911 118.238 905.598 118.238 906.346 118.238 907.064 118.145 907.75 117.958 908.436 117.77 909.045 117.49 909.575 117.115 910.105 116.741 910.573 116.304 910.979 115.805 911.384 115.306 911.696 114.76 911.915 114.167 912.133 113.575 912.242 112.935 912.242 112.249 912.242 111.562 912.102 110.876 911.821 110.19 911.54 109.504 911.104 108.802 910.511 108.084 909.918 107.367 909.185 106.696 908.312 106.072 901.449 101.268 892.807 98.866 882.388 98.866 875.525 98.866 869.177 100.145 863.343 102.703 857.509 105.261 852.612 108.724 848.65 113.091 844.688 117.458 841.6 122.559 839.385 128.393 837.17 134.226 836.062 140.387 836.062 146.876 836.062 155.736 837.887 163.784 841.537 171.021 845.187 178.259 850.537 184.061 857.587 188.429 864.638 192.796 872.749 194.98 881.92 194.98 Z M781.22 194.98 C794.822 194.98 806.302 190.862 815.66 182.626 817.719 180.942 818.749 178.914 818.749 176.543 818.749 174.671 818.109 173.018 816.83 171.583 815.551 170.148 814.038 169.43 812.291 169.43 811.106 169.43 809.92 169.836 808.735 170.647 799.189 177.385 790.517 180.755 782.718 180.755 774.295 180.692 767.572 178.306 762.55 173.595 757.527 168.885 754.798 161.569 754.361 151.649 L815.754 151.649 C817.875 151.649 819.42 150.916 820.387 149.45 821.354 147.983 821.837 146.127 821.837 143.881 821.712 137.704 820.777 131.98 819.03 126.708 817.283 121.436 814.74 116.694 811.402 112.483 808.064 108.271 803.635 104.949 798.113 102.516 792.591 100.082 786.243 98.866 779.068 98.866 772.018 98.866 765.591 100.145 759.789 102.703 753.987 105.261 749.214 108.724 745.47 113.091 741.727 117.458 738.841 122.465 736.813 128.112 734.786 133.758 733.772 139.732 733.772 146.034 733.772 161.133 738.124 173.034 746.827 181.737 755.531 190.441 766.995 194.855 781.22 194.98 Z M754.548 139.295 C754.86 135.926 755.593 132.713 756.747 129.656 757.902 126.599 759.477 123.791 761.474 121.233 763.47 118.675 766.059 116.616 769.241 115.056 772.423 113.497 775.98 112.717 779.91 112.717 787.522 112.717 793.324 115.244 797.317 120.297 801.31 125.351 803.588 131.684 804.149 139.295 Z M677.9 194.98 C684.327 194.98 690.129 193.654 695.308 191.002 700.486 188.351 704.729 184.779 708.035 180.287 711.342 175.794 713.885 170.632 715.663 164.798 717.441 158.964 718.33 152.803 718.33 146.314 718.33 132.152 714.586 120.703 707.099 111.968 699.612 103.233 689.443 98.866 676.59 98.866 662.864 98.866 652.913 104.013 646.736 114.308 L646.736 68.918 C646.736 65.923 645.722 63.584 643.694 61.899 641.667 60.214 639.249 59.372 636.441 59.372 633.634 59.372 631.216 60.214 629.188 61.899 627.161 63.584 626.147 65.923 626.147 68.918 L626.147 183.749 C626.147 186.806 627.192 189.209 629.282 190.956 631.372 192.702 633.79 193.576 636.535 193.576 639.654 193.576 642.134 192.765 643.975 191.143 645.816 189.52 646.736 187.056 646.736 183.749 L646.736 178.602 C652.85 189.521 663.238 194.98 677.9 194.98 Z M673.221 181.035 C663.613 181.035 656.812 178.118 652.819 172.285 648.826 166.451 646.829 157.888 646.829 146.595 646.829 142.165 647.313 138.001 648.28 134.101 649.247 130.202 650.713 126.614 652.679 123.339 654.644 120.063 657.358 117.474 660.821 115.571 664.283 113.668 668.292 112.717 672.847 112.717 677.401 112.717 681.363 113.715 684.732 115.712 688.101 117.708 690.706 120.406 692.547 123.807 694.387 127.207 695.729 130.779 696.571 134.522 697.413 138.266 697.834 142.228 697.834 146.408 697.834 149.59 697.6 152.694 697.132 155.72 696.665 158.746 695.838 161.819 694.652 164.938 693.467 168.058 691.985 170.787 690.207 173.127 688.429 175.467 686.074 177.37 683.141 178.836 680.209 180.302 676.902 181.035 673.221 181.035 Z M590.49 193.67 C593.298 193.67 595.747 192.749 597.837 190.909 599.927 189.068 600.972 186.588 600.972 183.469 L600.972 110.377 C600.972 107.195 599.958 104.699 597.93 102.89 595.902 101.081 593.516 100.176 590.771 100.176 587.963 100.176 585.53 101.081 583.471 102.89 581.412 104.699 580.383 107.195 580.383 110.377 L580.383 183.469 C580.383 186.713 581.365 189.224 583.331 191.002 585.296 192.78 587.682 193.67 590.49 193.67 Z M590.584 80.616 C594.327 80.616 597.337 79.54 599.615 77.388 601.892 75.235 603.031 72.381 603.031 68.824 603.031 65.33 601.908 62.492 599.662 60.308 597.415 58.124 594.421 57.032 590.677 57.032 586.934 57.032 583.923 58.124 581.646 60.308 579.369 62.492 578.23 65.33 578.23 68.824 578.23 72.381 579.369 75.235 581.646 77.388 583.923 79.54 586.903 80.616 590.584 80.616 Z M519.738 193.67 C522.546 193.67 524.995 192.812 527.085 191.096 529.175 189.38 530.22 186.994 530.22 183.936 L530.22 140.325 C530.22 135.833 530.906 132.027 532.279 128.907 533.651 125.788 535.617 123.401 538.175 121.748 540.733 120.094 543.525 118.925 546.551 118.238 549.577 117.552 553.055 117.209 556.986 117.209 559.045 117.209 560.667 116.398 561.852 114.776 563.038 113.153 563.631 111.219 563.631 108.973 563.631 107.85 563.475 106.758 563.163 105.698 562.851 104.637 562.383 103.686 561.759 102.843 561.135 102.001 560.324 101.33 559.326 100.831 558.327 100.332 557.204 100.082 555.956 100.082 549.904 100.082 544.461 102.048 539.625 105.978 534.79 109.909 531.561 114.776 529.939 120.578 L530.22 108.973 C530.282 106.228 529.315 104.076 527.319 102.516 525.322 100.956 522.92 100.176 520.113 100.176 518.303 100.176 516.619 100.504 515.059 101.159 513.499 101.814 512.204 102.874 511.175 104.341 510.146 105.807 509.631 107.569 509.631 109.628 L509.631 183.936 C509.631 187.056 510.629 189.458 512.626 191.143 514.622 192.827 516.993 193.67 519.738 193.67 Z M440.657 193.763 C443.839 193.763 446.584 192.765 448.893 190.768 451.201 188.772 452.356 185.995 452.356 182.439 L452.356 77.809 484.924 77.809 C487.731 77.809 489.931 76.873 491.522 75.001 493.113 73.129 493.908 70.977 493.908 68.544 493.908 66.11 493.113 63.958 491.522 62.086 489.931 60.214 487.731 59.279 484.924 59.279 L396.391 59.279 C393.521 59.279 391.274 60.214 389.652 62.086 388.03 63.958 387.219 66.11 387.219 68.544 387.219 70.977 388.03 73.129 389.652 75.001 391.274 76.873 393.521 77.809 396.391 77.809 L429.052 77.809 429.052 182.439 C429.052 185.995 430.207 188.772 432.515 190.768 434.824 192.765 437.538 193.763 440.657 193.763 Z"
    fill="#000000" fill-opacity="1" stroke="none" />
  <g id="logo">
    <path id="Path_4"
      d="M317.654 255.623 L309.262 255.623 C308.365 255.633 307.533 255.157 307.086 254.38 L300.095 243.193 228.783 130.085 221.481 118.432 162.287 24.745 C161.814 23.95 160.958 23.463 160.034 23.463 159.11 23.463 158.253 23.95 157.781 24.745 L131.523 66.228 124.222 77.881 20.587 243.193 13.596 254.38 C13.121 255.129 12.307 255.595 11.421 255.623 L2.876 255.623 C1.914 255.63 1.028 255.105 0.572 254.258 0.116 253.411 0.165 252.382 0.7 251.583 L5.983 243.191 116.761 66.535 124.062 54.882 157.623 1.282 C158.096 0.487 158.952 0 159.876 0 160.801 0 161.657 0.487 162.129 1.282 L228.627 106.779 235.929 118.432 314.701 243.193 319.983 251.586 C320.416 252.424 320.393 253.424 319.922 254.241 319.45 255.058 318.596 255.579 317.654 255.623 Z"
      fill="#ffc000" fill-opacity="1" stroke="none" />
    <path id="Path_5"
      d="M368.304 255.623 L362.242 255.623 C360.978 255.641 359.798 254.992 359.137 253.914 L352.301 243.194 257.681 93.262 C257.022 92.177 255.844 91.515 254.574 91.515 253.304 91.515 252.126 92.177 251.467 93.262 L235.772 118.432 228.47 130.085 201.592 172.969 194.291 184.622 157.468 243.351 150.787 254.071 C150.126 255.149 148.946 255.798 147.682 255.78 L141.623 255.78 C140.295 255.777 139.073 255.056 138.428 253.895 137.784 252.734 137.818 251.315 138.518 250.187 L142.868 243.35 186.837 173.275 194.139 161.623 221.169 118.432 228.47 106.779 251.62 69.957 C252.28 68.872 253.458 68.209 254.728 68.209 255.997 68.209 257.175 68.872 257.835 69.957 L367.217 243.349 371.567 250.185 C372.965 252.36 371.101 255.623 368.304 255.623 Z"
      fill="#ffc000" fill-opacity="1" stroke="none" />
    <path id="Path_6"
      d="M256.128 255.624 L245.721 255.624 C242.915 255.624 240.293 254.226 238.73 251.895 L232.981 243.194 194.293 184.465 186.836 173.123 161.041 133.966 153.584 122.624 124.064 77.726 131.21 66.073 161.041 111.285 168.499 122.627 193.979 161.316 201.44 172.654 247.74 242.881 Z"
      fill="#ffc000" fill-opacity="1" stroke="none" />
    <path id="Path_7"
      d="M166.324 126.2 L161.198 133.969 88.329 243.193 86.153 246.456 81.803 252.982 C80.649 254.671 78.721 255.664 76.676 255.623 75.021 255.646 73.427 254.998 72.257 253.828 71.087 252.657 70.439 251.064 70.462 249.409 70.463 248.184 70.844 246.99 71.552 245.991 L73.417 243.194 153.744 122.783 156.074 119.365 C157.23 117.621 159.184 116.572 161.277 116.572 163.37 116.572 165.324 117.621 166.48 119.365 167.752 121.483 167.691 124.143 166.324 126.2 Z"
      fill="#ffc000" fill-opacity="1" stroke="none" />
    <path id="Path_11"
      d="M76.206 255.623 L11.577 255.623 C9.509 255.604 7.586 254.555 6.45 252.827 5.186 250.93 5.066 248.492 6.137 246.48 7.208 244.467 9.297 243.205 11.577 243.194 L76.21 243.194 C78.361 243.204 80.356 244.319 81.49 246.147 84.131 250.185 81.023 255.623 76.206 255.623 Z"
      fill="#ffc000" fill-opacity="1" stroke="none" />
    <path id="Path_10"
      d="M363.641 255.623 L244.63 255.623 C242.562 255.604 240.64 254.555 239.504 252.827 238.24 250.93 238.119 248.492 239.19 246.48 240.262 244.467 242.351 243.205 244.63 243.194 L363.641 243.194 C365.793 243.204 367.789 244.319 368.924 246.147 371.567 250.185 368.46 255.623 363.641 255.623 Z"
      fill="#ffc000" fill-opacity="1" stroke="none" />
  </g>
</svg>
